<?xml version="1.0" encoding="UTF-8" standalone="no"?>
<svg
   xmlns:dc="http://purl.org/dc/elements/1.1/"
   xmlns:cc="http://creativecommons.org/ns#"
   xmlns:rdf="http://www.w3.org/1999/02/22-rdf-syntax-ns#"
   xmlns:svg="http://www.w3.org/2000/svg"
   xmlns="http://www.w3.org/2000/svg"
   viewBox="0 0 302.66666 514.66669"
   height="514.66669"
   width="302.66666"
   xml:space="preserve"
   id="svg2"
   version="1.1"><metadata
     id="metadata8"><rdf:RDF><cc:Work
         rdf:about=""><dc:format>image/svg+xml</dc:format><dc:type
           rdf:resource="http://purl.org/dc/dcmitype/StillImage" /></cc:Work></rdf:RDF></metadata><defs
     id="defs6"><clipPath
       id="clipPath20"
       clipPathUnits="userSpaceOnUse"><path
         id="path18"
         d="M 0,3857 H 2270 V 0 H 0 Z" /></clipPath></defs><g
     transform="matrix(1.3333333,0,0,-1.3333333,0,514.66667)"
     id="g10"><g
       transform="scale(0.1)"
       id="g12"><g
         id="g14"><g
           clip-path="url(#clipPath20)"
           id="g16"><path
             id="path22"
             style="fill:#1e4b24;fill-opacity:1;fill-rule:nonzero;stroke:none"
             d="m 333.184,2359.38 c 0.464,-35.17 4.039,-309.51 4.039,-309.51 20.734,-20.73 445.05,-444.37 445.05,-444.37 -0.066,-32.84 -0.152,-270.86 0.075,-296.78 0,0 -150.317,-81.17 -165.149,-88.8 13.059,-7.03 160.992,-88.07 160.992,-88.07 0.446,-34.42 0.418,-262.959 0.418,-262.959 -19.316,-10.411 -134.457,-72.45 -156.625,-85.141 30.411,-16.559 157.364,-85.68 157.364,-85.68 0.254,-8.281 3.3,-105.898 3,-118.648 C 782.152,571.07 1136.32,8.26953 1136.95,7.32031 c 9.15,7.33989 25.88,20.87109 35.1,27.89849 C 1169.44,39.4805 832.035,586.5 832.035,586.5 c -0.91,140.879 -4.199,974.9 -4.68,1041.27 l -430.808,431.85 c -0.727,56.43 -1.559,112.6 -1.246,169.35 0,0 420.047,-411.3 438.219,-429.16 0,0 -0.137,49.72 -0.473,66.61 l -499.863,492.96" /><path
             id="path24"
             style="fill:none;stroke:#1e4b24;stroke-width:10;stroke-linecap:butt;stroke-linejoin:miter;stroke-miterlimit:10;stroke-dasharray:none;stroke-opacity:1"
             d="m 333.184,2359.38 c 0.464,-35.17 4.039,-309.51 4.039,-309.51 20.734,-20.73 445.05,-444.37 445.05,-444.37 -0.066,-32.84 -0.152,-270.86 0.075,-296.78 0,0 -150.317,-81.17 -165.149,-88.8 13.059,-7.03 160.992,-88.07 160.992,-88.07 0.446,-34.42 0.418,-262.959 0.418,-262.959 -19.316,-10.411 -134.457,-72.45 -156.625,-85.141 30.411,-16.559 157.364,-85.68 157.364,-85.68 0.254,-8.281 3.3,-105.898 3,-118.648 C 782.152,571.07 1136.32,8.26953 1136.95,7.32031 c 9.15,7.33989 25.88,20.87109 35.1,27.89849 C 1169.44,39.4805 832.035,586.5 832.035,586.5 c -0.91,140.879 -4.199,974.9 -4.68,1041.27 l -430.808,431.85 c -0.727,56.43 -1.559,112.6 -1.246,169.35 0,0 420.047,-411.3 438.219,-429.16 0,0 -0.137,49.72 -0.473,66.61 z" /><path
             id="path26"
             style="fill:#1e4b24;fill-opacity:1;fill-rule:nonzero;stroke:none"
             d="m 687.246,1511.07 c -17.699,16.6 -467.699,465.11 -467.699,465.11 0.129,72.02 0.902,609.53 0.75,658.84 l 626.18,-625.67 c 0.109,16.19 5.035,1060.43 5.32,1130.12 0,0 554.273,553.72 582.083,581.48 -0.07,-25.41 -0.01,-50.51 0.07,-74.78 0,0 45.43,33.18 48.28,35.41 0,4.5 -0.28,141.92 -0.28,162.89 -9.43,-9.57 -386.39,-392.58 -386.39,-392.58 -5.49,1.66 -146.412,45.17 -162.33,50.31 4.434,-18.85 39.497,-166.67 41.868,-176.58 L 795.383,3146.07 c 0.027,-20.17 0.226,-153.68 0.254,-172.2 l -134.899,-76.04 c 10.25,-5.91 135.907,-78.16 135.907,-78.16 -0.075,-7.56 -2.028,-229.18 -2.157,-235.8 0,0 -132.14,-72.97 -150.664,-83.39 30,-16.13 153.395,-81.62 153.395,-81.62 -0.094,-35.54 -1.731,-293.16 -1.731,-293.16 -17.34,17.17 -315.539,314.39 -315.539,314.39 5.746,19.67 46.649,159.68 48.598,165.38 1.32,3.86 -165.336,-47.43 -165.336,-47.43 -8.57,8.1 -196.266,191.1 -196.266,191.1 -0.023,-40.14 -0.254,-426.24 -0.254,-426.24 -7.968,-4.08 -144.2652,-75.07 -155.9957,-81.18 9.8789,-5.31 159.9527,-85.95 159.9527,-85.95 -0.003,-21.34 0.536,-190.5 0.536,-190.5 26.933,-26.94 226.527,-225.62 226.527,-225.62 -8.977,-29.68 -17.949,-59.36 -26.922,-89.04 -2.476,-8.2 -4.953,-16.39 -7.434,-24.59 -6.496,-21.49 -12.992,-42.98 -19.492,-64.47 16.782,5.66 123.364,41.77 167.262,55.38 0,0 160.563,-154.81 175.074,-168.86 0.207,12.4 0.813,54.34 1.047,63" /><path
             id="path28"
             style="fill:none;stroke:#1e4b24;stroke-width:10;stroke-linecap:butt;stroke-linejoin:miter;stroke-miterlimit:10;stroke-dasharray:none;stroke-opacity:1"
             d="m 687.246,1511.07 c -17.699,16.6 -467.699,465.11 -467.699,465.11 0.129,72.02 0.902,609.53 0.75,658.84 l 626.18,-625.67 c 0.109,16.19 5.035,1060.43 5.32,1130.12 0,0 554.273,553.72 582.083,581.48 -0.07,-25.41 -0.01,-50.51 0.07,-74.78 0,0 45.43,33.18 48.28,35.41 0,4.5 -0.28,141.92 -0.28,162.89 -9.43,-9.57 -386.39,-392.58 -386.39,-392.58 -5.49,1.66 -146.412,45.17 -162.33,50.31 4.434,-18.85 39.497,-166.67 41.868,-176.58 L 795.383,3146.07 c 0.027,-20.17 0.226,-153.68 0.254,-172.2 l -134.899,-76.04 c 10.25,-5.91 135.907,-78.16 135.907,-78.16 -0.075,-7.56 -2.028,-229.18 -2.157,-235.8 0,0 -132.14,-72.97 -150.664,-83.39 30,-16.13 153.395,-81.62 153.395,-81.62 -0.094,-35.54 -1.731,-293.16 -1.731,-293.16 -17.34,17.17 -315.539,314.39 -315.539,314.39 5.746,19.67 46.649,159.68 48.598,165.38 1.32,3.86 -165.336,-47.43 -165.336,-47.43 -8.57,8.1 -196.266,191.1 -196.266,191.1 -0.023,-40.14 -0.254,-426.24 -0.254,-426.24 -7.968,-4.08 -144.2652,-75.07 -155.9957,-81.18 9.8789,-5.31 159.9527,-85.95 159.9527,-85.95 -0.003,-21.34 0.536,-190.5 0.536,-190.5 26.933,-26.94 226.527,-225.62 226.527,-225.62 -8.977,-29.68 -17.949,-59.36 -26.922,-89.04 -2.476,-8.2 -4.953,-16.39 -7.434,-24.59 -6.496,-21.49 -12.992,-42.98 -19.492,-64.47 16.782,5.66 123.364,41.77 167.262,55.38 0,0 160.563,-154.81 175.074,-168.86 0.207,12.4 0.813,54.34 1.047,63 z" /><path
             id="path30"
             style="fill:#1e4b24;fill-opacity:1;fill-rule:nonzero;stroke:none"
             d="m 2113.35,1683.14 c 0.47,-18.47 0.23,-177.62 0.23,-177.62 -19.18,-16.8 -99.94,-88.16 -112.79,-99.86" /><path
             id="path32"
             style="fill:none;stroke:#1e4b24;stroke-width:10;stroke-linecap:butt;stroke-linejoin:miter;stroke-miterlimit:10;stroke-dasharray:none;stroke-opacity:1"
             d="m 2113.35,1683.14 c 0.47,-18.47 0.23,-177.62 0.23,-177.62 -19.18,-16.8 -99.94,-88.16 -112.79,-99.86" /><path
             id="path34"
             style="fill:#1e4b24;fill-opacity:1;fill-rule:nonzero;stroke:none"
             d="m 2000.79,1405.66 c 12.96,11.47 93.61,83.06 112.79,99.86 0,0 0.24,159.15 -0.23,177.62 0,0 138.35,78.24 145.6,82.33 -31.91,17.01 -143.31,76.45 -146.59,78.19 0,2.92 -0.26,345.53 -1.24,372.94 -9.32,-8.05 -208.95,-180.02 -208.95,-180.02 -8.21,2.92 -131.23,46.52 -155.02,54.99 4.5,-20.85 34.57,-166.24 34.57,-166.24 -40.97,-37.62 -212.1,-192.03 -212.1,-192.03 0,-16.43 0.22,-54.4 -0.03,-69.41 24.38,21.6 477.33,423.84 487.76,433.12 l 0.97,-565.89 c -8.2,-7.36 -606.6,-539.229 -618.43,-549.659 0,0 -1.09,-599.031 -1.09,-603.68 0,0 -26.14,-28.98 -34.63,-38.359 -12.36,19.457 -133.12,211.828 -143.39,227.367 0.08,42.633 -1.82,2719.791 -1.82,2719.791 5.91,5.77 174.46,173.98 174.46,173.98 -0.02,-17.94 7.95,-2285.54 7.7,-2323.86 39.92,34.62 492.63,427.06 492.63,427.06 0.24,55.12 0,265.61 0,275.85 -13.48,-11.09 -361.01,-301.55 -361.01,-301.55 -0.1,-21.7 -0.27,-45.57 -0.61,-66.88 10.02,8.41 307.8,257 319.06,266.5 0.16,-27.68 0.84,-142.45 0.84,-142.45 -5.99,-3.89 -401.4,-349.02 -408.25,-354.96 0,40.08 0.67,842.62 -1.66,861.25 0,0 139.42,77.8 142.44,79.86 -1.69,0.96 -136.89,73.75 -137.81,74.37 0.02,13.3 0.34,349.47 0.34,352.41 3.05,1.96 129.45,80.59 133.53,83.19 -6.74,3.63 -135.37,73.05 -135.37,73.05 -0.07,21.67 -0.55,401.91 -0.55,401.91 24.95,13.99 143.56,81.66 146.05,83.13 l -148.52,80.79 c 0,7.65 0,177.24 0,252.94 -2.77,-2.81 -270.88,-271.2 -270.88,-271.2 -0.23,-12.67 2.8,-2753.15 2.8,-2753.15 4.37,-6.789 178.06,-283.371 184.85,-293.949 17.7,18.988 80.96,83.59 84.85,87.789 0,0 0.53,177.481 0.56,200.949 0,0 146.98,82.7 148.81,83.711 -2.45,1.352 -140.88,76.821 -140.88,76.821 0,5.871 0,244 0,252.238 0,0 67.2,62.921 71.4,66.621 0,0 153.86,-49.289 160.31,-51.43 -4.64,27.57 -23.97,143.27 -26.29,157.18 25.29,22.83 143.13,130.08 177.19,161.27 21.84,-6.87 125.75,-44.05 160.02,-53.68 -10.02,52.93 -20.48,106.14 -32.09,163.77" /><path
             id="path36"
             style="fill:none;stroke:#1e4b24;stroke-width:10;stroke-linecap:butt;stroke-linejoin:miter;stroke-miterlimit:10;stroke-dasharray:none;stroke-opacity:1"
             d="m 2000.79,1405.66 c 12.96,11.47 93.61,83.06 112.79,99.86 0,0 0.24,159.15 -0.23,177.62 0,0 138.35,78.24 145.6,82.33 -31.91,17.01 -143.31,76.45 -146.59,78.19 0,2.92 -0.26,345.53 -1.24,372.94 -9.32,-8.05 -208.95,-180.02 -208.95,-180.02 -8.21,2.92 -131.23,46.52 -155.02,54.99 4.5,-20.85 34.57,-166.24 34.57,-166.24 -40.97,-37.62 -212.1,-192.03 -212.1,-192.03 0,-16.43 0.22,-54.4 -0.03,-69.41 24.38,21.6 477.33,423.84 487.76,433.12 l 0.97,-565.89 c -8.2,-7.36 -606.6,-539.229 -618.43,-549.659 0,0 -1.09,-599.031 -1.09,-603.68 0,0 -26.14,-28.98 -34.63,-38.359 -12.36,19.457 -133.12,211.828 -143.39,227.367 0.08,42.633 -1.82,2719.791 -1.82,2719.791 5.91,5.77 174.46,173.98 174.46,173.98 -0.02,-17.94 7.95,-2285.54 7.7,-2323.86 39.92,34.62 492.63,427.06 492.63,427.06 0.24,55.12 0,265.61 0,275.85 -13.48,-11.09 -361.01,-301.55 -361.01,-301.55 -0.1,-21.7 -0.27,-45.57 -0.61,-66.88 10.02,8.41 307.8,257 319.06,266.5 0.16,-27.68 0.84,-142.45 0.84,-142.45 -5.99,-3.89 -401.4,-349.02 -408.25,-354.96 0,40.08 0.67,842.62 -1.66,861.25 0,0 139.42,77.8 142.44,79.86 -1.69,0.96 -136.89,73.75 -137.81,74.37 0.02,13.3 0.34,349.47 0.34,352.41 3.05,1.96 129.45,80.59 133.53,83.19 -6.74,3.63 -135.37,73.05 -135.37,73.05 -0.07,21.67 -0.55,401.91 -0.55,401.91 24.95,13.99 143.56,81.66 146.05,83.13 l -148.52,80.79 c 0,7.65 0,177.24 0,252.94 -2.77,-2.81 -270.88,-271.2 -270.88,-271.2 -0.23,-12.67 2.8,-2753.15 2.8,-2753.15 4.37,-6.789 178.06,-283.371 184.85,-293.949 17.7,18.988 80.96,83.59 84.85,87.789 0,0 0.53,177.481 0.56,200.949 0,0 146.98,82.7 148.81,83.711 -2.45,1.352 -140.88,76.821 -140.88,76.821 0,5.871 0,244 0,252.238 0,0 67.2,62.921 71.4,66.621 0,0 153.86,-49.289 160.31,-51.43 -4.64,27.57 -23.97,143.27 -26.29,157.18 25.29,22.83 143.13,130.08 177.19,161.27 21.84,-6.87 125.75,-44.05 160.02,-53.68 -10.02,52.93 -20.48,106.14 -32.09,163.77" /><path
             id="path38"
             style="fill:#1e4b24;fill-opacity:1;fill-rule:nonzero;stroke:none"
             d="m 1047.55,560.371 c 45.9,-72.301 218.29,-351.082 223.5,-359.699 11.39,11.558 24.42,25.008 33.9,35.098 7.7,-13.438 18,-31.801 24.3,-43.801 0,0 -53.17,-53.399 -67.13,-64.098 -51.36,80.879 -251.77,407.75 -264.972,427.848 l -3.625,2563.371 c 17.127,14.38 44.477,36.7 51.447,42.36 0.1,-26.29 2.58,-2601.079 2.58,-2601.079" /><path
             id="path40"
             style="fill:none;stroke:#1e4b24;stroke-width:10;stroke-linecap:butt;stroke-linejoin:miter;stroke-miterlimit:10;stroke-dasharray:none;stroke-opacity:1"
             d="m 1047.55,560.371 c 45.9,-72.301 218.29,-351.082 223.5,-359.699 11.39,11.558 24.42,25.008 33.9,35.098 7.7,-13.438 18,-31.801 24.3,-43.801 0,0 -53.17,-53.399 -67.13,-64.098 -51.36,80.879 -251.77,407.75 -264.972,427.848 l -3.625,2563.371 c 17.127,14.38 44.477,36.7 51.447,42.36 0.1,-26.29 2.58,-2601.079 2.58,-2601.079 z" /></g></g></g></g></svg>